<svg xmlns="http://www.w3.org/2000/svg" width="1520" height="840" viewBox="0 0 760 420" fill="none">
  <rect width="760" height="420" fill="#f7f6f3"/>
  <text x="20" y="26" font-family="Inter, Arial, sans-serif" font-size="15" font-weight="700" fill="#1c1917">The three dots = a status lamp</text>
  <text x="20" y="42" font-family="Inter, Arial, sans-serif" font-size="11" fill="#a8a29e">one lit at a time · same fixed spot on every card · scan a column and reds jump out</text>

  <!-- legend: 4 states -->
  <!-- To do -->
  <g transform="translate(70,0)">
    <circle cx="0" cy="78" r="5" fill="#ffffff" stroke="#d6d3d1" stroke-width="1.4"/>
    <circle cx="0" cy="93" r="5" fill="#ffffff" stroke="#d6d3d1" stroke-width="1.4"/>
    <circle cx="0" cy="108" r="5" fill="#ffffff" stroke="#d6d3d1" stroke-width="1.4"/>
    <text x="0" y="132" text-anchor="middle" font-family="Inter, Arial, sans-serif" font-size="11" font-weight="600" fill="#57534e">To do</text>
    <text x="0" y="148" text-anchor="middle" font-family="Inter, Arial, sans-serif" font-size="10" fill="#a8a29e">idle · all dim</text>
  </g>
  <!-- In progress -->
  <g transform="translate(260,0)">
    <circle cx="0" cy="78" r="5" fill="#ffffff" stroke="#d6d3d1" stroke-width="1.4"/>
    <circle cx="0" cy="93" r="9" fill="#f59e0b" opacity="0.16"/>
    <circle cx="0" cy="93" r="5" fill="#f59e0b"/>
    <circle cx="0" cy="108" r="5" fill="#ffffff" stroke="#d6d3d1" stroke-width="1.4"/>
    <text x="0" y="132" text-anchor="middle" font-family="Inter, Arial, sans-serif" font-size="11" font-weight="600" fill="#b45309">In progress</text>
    <text x="0" y="148" text-anchor="middle" font-family="Inter, Arial, sans-serif" font-size="10" fill="#a8a29e">active · amber</text>
  </g>
  <!-- Done -->
  <g transform="translate(450,0)">
    <circle cx="0" cy="78" r="5" fill="#ffffff" stroke="#d6d3d1" stroke-width="1.4"/>
    <circle cx="0" cy="93" r="5" fill="#ffffff" stroke="#d6d3d1" stroke-width="1.4"/>
    <circle cx="0" cy="108" r="9" fill="#10b981" opacity="0.16"/>
    <circle cx="0" cy="108" r="5" fill="#10b981"/>
    <text x="0" y="132" text-anchor="middle" font-family="Inter, Arial, sans-serif" font-size="11" font-weight="600" fill="#047857">Done</text>
    <text x="0" y="148" text-anchor="middle" font-family="Inter, Arial, sans-serif" font-size="10" fill="#a8a29e">complete · green</text>
  </g>
  <!-- Needs attention -->
  <g transform="translate(640,0)">
    <circle cx="0" cy="78" r="9" fill="#f43f5e" opacity="0.16"/>
    <circle cx="0" cy="78" r="5" fill="#f43f5e"/>
    <circle cx="0" cy="93" r="5" fill="#ffffff" stroke="#d6d3d1" stroke-width="1.4"/>
    <circle cx="0" cy="108" r="5" fill="#ffffff" stroke="#d6d3d1" stroke-width="1.4"/>
    <text x="0" y="132" text-anchor="middle" font-family="Inter, Arial, sans-serif" font-size="11" font-weight="600" fill="#e11d48">Attention</text>
    <text x="0" y="148" text-anchor="middle" font-family="Inter, Arial, sans-serif" font-size="10" fill="#a8a29e">overdue / blocked · red</text>
  </g>

  <line x1="20" y1="170" x2="740" y2="170" stroke="#e7e5e4" stroke-width="1"/>
  <text x="20" y="194" font-family="Inter, Arial, sans-serif" font-size="11" font-weight="600" fill="#44403c">In context</text>

  <!-- Card 1: In progress (amber lit) -->
  <g transform="translate(20,206)">
    <rect x="0" y="0" width="348" height="190" rx="12" fill="#ffffff" stroke="#1c1917" stroke-width="1.3"/>
    <circle cx="72" cy="0" r="6" fill="#f7f6f3"/>
    <circle cx="72" cy="190" r="6" fill="#f7f6f3"/>
    <line x1="72" y1="12" x2="72" y2="178" stroke="#d6d3d1" stroke-width="1.2" stroke-dasharray="2 4"/>
    <circle cx="36" cy="20" r="5" fill="#ffffff" stroke="#d6d3d1" stroke-width="1.4"/>
    <circle cx="36" cy="35" r="9" fill="#f59e0b" opacity="0.16"/>
    <circle cx="36" cy="35" r="5" fill="#f59e0b"/>
    <circle cx="36" cy="50" r="5" fill="#ffffff" stroke="#d6d3d1" stroke-width="1.4"/>
    <rect x="28" y="70" width="16" height="16" rx="4" fill="#10b981"/>
    <rect x="33" y="75" width="6" height="6" rx="1" fill="#ffffff"/>
    <text transform="rotate(-90 36 156)" x="36" y="156" text-anchor="middle" font-family="ui-monospace, Menlo, monospace" font-size="12" letter-spacing="1.5" fill="#78716c">SM-5</text>
    <circle cx="322" cy="32" r="13" fill="#fed7aa"/>
    <text x="322" y="36" text-anchor="middle" font-family="Inter, Arial, sans-serif" font-size="9" font-weight="600" fill="#9a3412">AL</text>
    <text x="88" y="42" font-family="ui-monospace, Menlo, monospace" font-size="14" font-weight="500"><tspan fill="#f97316">&gt; </tspan><tspan fill="#1c1917">Build login form</tspan></text>
    <rect x="241" y="30" width="2.4" height="15" fill="#f97316"/>
    <text x="88" y="68" font-family="ui-monospace, Menlo, monospace" font-size="11" fill="#7c3aed">// Login</text>
    <text x="88" y="174" font-family="ui-monospace, Menlo, monospace" font-size="11"><tspan fill="#78716c">5pt · jun 22 · 0/3</tspan></text>
    <text x="20" y="212" font-family="Inter, Arial, sans-serif" font-size="11" fill="#a8a29e">amber lamp — work is moving</text>
  </g>

  <!-- Card 2: Overdue (red lit) -->
  <g transform="translate(392,206)">
    <rect x="0" y="0" width="348" height="190" rx="12" fill="#ffffff" stroke="#1c1917" stroke-width="1.3"/>
    <circle cx="72" cy="0" r="6" fill="#f7f6f3"/>
    <circle cx="72" cy="190" r="6" fill="#f7f6f3"/>
    <line x1="72" y1="12" x2="72" y2="178" stroke="#d6d3d1" stroke-width="1.2" stroke-dasharray="2 4"/>
    <circle cx="36" cy="20" r="9" fill="#f43f5e" opacity="0.18"/>
    <circle cx="36" cy="20" r="5" fill="#f43f5e"/>
    <circle cx="36" cy="35" r="5" fill="#ffffff" stroke="#d6d3d1" stroke-width="1.4"/>
    <circle cx="36" cy="50" r="5" fill="#ffffff" stroke="#d6d3d1" stroke-width="1.4"/>
    <rect x="28" y="70" width="16" height="16" rx="4" fill="#10b981"/>
    <rect x="33" y="75" width="6" height="6" rx="1" fill="#ffffff"/>
    <text transform="rotate(-90 36 156)" x="36" y="156" text-anchor="middle" font-family="ui-monospace, Menlo, monospace" font-size="12" letter-spacing="1.5" fill="#78716c">SM-6</text>
    <circle cx="322" cy="32" r="13" fill="#fed7aa"/>
    <text x="322" y="36" text-anchor="middle" font-family="Inter, Arial, sans-serif" font-size="9" font-weight="600" fill="#9a3412">SA</text>
    <text x="88" y="42" font-family="ui-monospace, Menlo, monospace" font-size="14" font-weight="500"><tspan fill="#f97316">&gt; </tspan><tspan fill="#1c1917">Session token refresh</tspan></text>
    <text x="88" y="68" font-family="ui-monospace, Menlo, monospace" font-size="11" fill="#7c3aed">// Login</text>
    <text x="88" y="174" font-family="ui-monospace, Menlo, monospace" font-size="11"><tspan fill="#78716c">3pt · </tspan><tspan fill="#e11d48">jun 15 ⚠</tspan></text>
    <text x="20" y="212" font-family="Inter, Arial, sans-serif" font-size="11" fill="#a8a29e">red lamp — overdue, triage now</text>
  </g>
</svg>
